# xmcd
#
# Track frame offsets: 
#        150
#        23045
#        43518
#        61128
#        80633
#        104143
#        126213
#        143088
#        160180
#        178083
#        197033
#        217793
#
# Disc length: 3124 seconds
#
# Revision: 2
# Processed by: cddbd v1.5.1PL0 Copyright (c) Steve Scherf et al.
# Submitted via: ExactAudioCopy v0.90b4
#
DISCID=a40c320c
DTITLE=Studebaker John and The Hawks - Howl With The Wolf
DYEAR=2001
DGENRE=Blues
TTITLE0=Burned By Love
TTITLE1=End To The Lies
TTITLE2=Juke Joint Jump
TTITLE3=Meant To Be
TTITLE4=Nothing For Nothing
TTITLE5=Rich Man
TTITLE6=Harpology
TTITLE7=Don't You Take It
TTITLE8=Nothing Comes Easy
TTITLE9=Don't Know What You Do
TTITLE10=Lock and Chain
TTITLE11=Howl With The Wolf
EXTD=YEAR: 2001 ID3G:   0
EXTT0=
EXTT1=
EXTT2=
EXTT3=
EXTT4=
EXTT5=
EXTT6=
EXTT7=
EXTT8=
EXTT9=
EXTT10=
EXTT11=
PLAYORDER=
